<svg xmlns="http://www.w3.org/2000/svg" width="106.65" height="18.475" viewBox="0 0 106.65 18.475" fill="currentColor">
  <path id="Tracé_4" data-name="Tracé 4" d="M11.7-17.85H.3v2.95H4.2V0H7.8V-14.9h3.9ZM19.325-6.725,17.6-14.75h-.05L15.825-6.725ZM19.8-17.85,24.525,0h-3.75L19.95-3.775H15.2L14.375,0h-3.75L15.35-17.85Zm15.05,0H23.45v2.95h3.9V0h3.6V-14.9h3.9Zm11.525,0H36.4V0H46.625V-2.95H40v-4.8h6V-10.7H40v-4.2h6.375Zm2.125,0V0h3.3V-14.25h.05L55.025,0h2.8L61-14.25h.05V0h3.3V-17.85H59.025L56.45-5.25H56.4l-2.55-12.6ZM70.15-8.925q0-1.8.088-3.05a8.657,8.657,0,0,1,.35-2.05,2.282,2.282,0,0,1,.75-1.163,2.106,2.106,0,0,1,1.287-.362,2.106,2.106,0,0,1,1.288.362,2.282,2.282,0,0,1,.75,1.163,8.657,8.657,0,0,1,.35,2.05q.088,1.25.088,3.05t-.088,3.063a8.5,8.5,0,0,1-.35,2.05,2.278,2.278,0,0,1-.75,1.15,2.106,2.106,0,0,1-1.288.362,2.106,2.106,0,0,1-1.287-.362,2.278,2.278,0,0,1-.75-1.15,8.5,8.5,0,0,1-.35-2.05Q70.15-7.125,70.15-8.925Zm-3.6,0a34.383,34.383,0,0,0,.188,3.75,8.262,8.262,0,0,0,.825,2.925A4.386,4.386,0,0,0,69.4-.375a6.793,6.793,0,0,0,3.225.65,6.793,6.793,0,0,0,3.225-.65A4.385,4.385,0,0,0,77.688-2.25a8.262,8.262,0,0,0,.825-2.925,34.383,34.383,0,0,0,.188-3.75,34.475,34.475,0,0,0-.187-3.738,8.282,8.282,0,0,0-.825-2.937,4.618,4.618,0,0,0-1.837-1.913,6.481,6.481,0,0,0-3.225-.687,6.481,6.481,0,0,0-3.225.687A4.618,4.618,0,0,0,67.563-15.6a8.282,8.282,0,0,0-.825,2.938A34.475,34.475,0,0,0,66.55-8.925ZM84.975-17.85h-4.15V0h3.3V-12.5h.05L88.575,0h4.1V-17.85h-3.3V-5.625h-.05ZM98.4-8.925q0-1.8.088-3.05a8.657,8.657,0,0,1,.35-2.05,2.282,2.282,0,0,1,.75-1.163,2.106,2.106,0,0,1,1.287-.362,2.106,2.106,0,0,1,1.288.362,2.282,2.282,0,0,1,.75,1.163,8.657,8.657,0,0,1,.35,2.05q.088,1.25.088,3.05t-.088,3.063a8.5,8.5,0,0,1-.35,2.05,2.278,2.278,0,0,1-.75,1.15,2.106,2.106,0,0,1-1.288.362,2.106,2.106,0,0,1-1.287-.362,2.278,2.278,0,0,1-.75-1.15,8.5,8.5,0,0,1-.35-2.05Q98.4-7.125,98.4-8.925Zm-3.6,0a34.383,34.383,0,0,0,.188,3.75,8.262,8.262,0,0,0,.825,2.925A4.386,4.386,0,0,0,97.65-.375a6.793,6.793,0,0,0,3.225.65,6.793,6.793,0,0,0,3.225-.65,4.385,4.385,0,0,0,1.837-1.875,8.262,8.262,0,0,0,.825-2.925,34.383,34.383,0,0,0,.188-3.75,34.475,34.475,0,0,0-.187-3.738,8.282,8.282,0,0,0-.825-2.937,4.618,4.618,0,0,0-1.837-1.913,6.481,6.481,0,0,0-3.225-.687,6.481,6.481,0,0,0-3.225.687A4.618,4.618,0,0,0,95.813-15.6a8.282,8.282,0,0,0-.825,2.938A34.475,34.475,0,0,0,94.8-8.925Z" transform="translate(-0.3 18.2)"/>
</svg>
